<?xml version="1.0" encoding="UTF-8" standalone="no"?>
<!DOCTYPE svg PUBLIC "-//W3C//DTD SVG 1.1//EN"
 "http://www.w3.org/Graphics/SVG/1.1/DTD/svg11.dtd">
<!-- Generated by graphviz version 2.40.1 (0)
 -->
<!-- Title: %3 Pages: 1 -->
<svg width="796pt" height="328pt"
 viewBox="0.00 0.00 796.00 328.00" xmlns="http://www.w3.org/2000/svg" xmlns:xlink="http://www.w3.org/1999/xlink">
<g id="graph0" class="graph" transform="scale(1 1) rotate(0) translate(4 324)">
<title>%3</title>
<polygon fill="#ffffff" stroke="transparent" points="-4,4 -4,-324 792,-324 792,4 -4,4"/>
<!-- Movie -->
<g id="node1" class="node">
<title>Movie</title>
<polygon fill="#fce94f" stroke="transparent" points="545.5,-167 545.5,-188 788.5,-188 788.5,-167 545.5,-167"/>
<polygon fill="none" stroke="#000000" points="545.5,-167 545.5,-188 788.5,-188 788.5,-167 545.5,-167"/>
<text text-anchor="start" x="550.5" y="-176" font-family="Helvetica,sans-Serif" font-weight="bold" font-size="10.00" fill="#000000">Movie</text>
<text text-anchor="start" x="583.5" y="-176" font-family="Helvetica,sans-Serif" font-size="10.00" fill="#000000"> </text>
<text text-anchor="start" x="587.5" y="-176" font-family="Helvetica,sans-Serif" font-style="italic" font-size="10.00" fill="#000000">(38)</text>
<polygon fill="none" stroke="#000000" points="545.5,-146 545.5,-167 598.5,-167 598.5,-146 545.5,-146"/>
<text text-anchor="start" x="550.5" y="-154" font-family="Helvetica,sans-Serif" font-size="10.00" fill="#000000">released</text>
<polygon fill="none" stroke="#000000" points="598.5,-146 598.5,-167 636.5,-167 636.5,-146 598.5,-146"/>
<text text-anchor="start" x="603.5" y="-154" font-family="Helvetica,sans-Serif" font-size="10.00" fill="#000000">int</text>
<polygon fill="none" stroke="#000000" points="636.5,-146 636.5,-167 674.5,-167 674.5,-146 636.5,-146"/>
<text text-anchor="start" x="641.5" y="-154" font-family="Helvetica,sans-Serif" font-size="10.00" fill="#000000">100%</text>
<polygon fill="none" stroke="#000000" points="674.5,-146 674.5,-167 709.5,-167 709.5,-146 674.5,-146"/>
<text text-anchor="start" x="679.5" y="-154" font-family="Helvetica,sans-Serif" font-size="10.00" fill="#000000">1975</text>
<polygon fill="none" stroke="#000000" points="709.5,-146 709.5,-167 753.5,-167 753.5,-146 709.5,-146"/>
<text text-anchor="start" x="714.5" y="-154" font-family="Helvetica,sans-Serif" font-size="10.00" fill="#000000">1998.3</text>
<polygon fill="none" stroke="#000000" points="753.5,-146 753.5,-167 788.5,-167 788.5,-146 753.5,-146"/>
<text text-anchor="start" x="758.5" y="-154" font-family="Helvetica,sans-Serif" font-size="10.00" fill="#000000">2012</text>
<polygon fill="none" stroke="#000000" points="545.5,-125 545.5,-146 598.5,-146 598.5,-125 545.5,-125"/>
<text text-anchor="start" x="550.5" y="-133" font-family="Helvetica,sans-Serif" font-size="10.00" fill="#000000">tagline</text>
<polygon fill="none" stroke="#000000" points="598.5,-125 598.5,-146 636.5,-146 636.5,-125 598.5,-125"/>
<text text-anchor="start" x="603.5" y="-133" font-family="Helvetica,sans-Serif" font-size="10.00" fill="#000000">string</text>
<polygon fill="none" stroke="#000000" points="636.5,-125 636.5,-146 674.5,-146 674.5,-125 636.5,-125"/>
<text text-anchor="start" x="647.5" y="-133" font-family="Helvetica,sans-Serif" font-size="10.00" fill="#000000">97%</text>
<polygon fill="none" stroke="#000000" points="674.5,-125 674.5,-146 709.5,-146 709.5,-125 674.5,-125"/>
<text text-anchor="start" x="691.5" y="-133" font-family="Helvetica,sans-Serif" font-size="10.00" fill="#000000">14</text>
<polygon fill="none" stroke="#000000" points="709.5,-125 709.5,-146 753.5,-146 753.5,-125 709.5,-125"/>
<text text-anchor="start" x="726.5" y="-133" font-family="Helvetica,sans-Serif" font-size="10.00" fill="#000000">48.8</text>
<polygon fill="none" stroke="#000000" points="753.5,-125 753.5,-146 788.5,-146 788.5,-125 753.5,-125"/>
<text text-anchor="start" x="764.5" y="-133" font-family="Helvetica,sans-Serif" font-size="10.00" fill="#000000">173</text>
<polygon fill="none" stroke="#000000" points="545.5,-104 545.5,-125 598.5,-125 598.5,-104 545.5,-104"/>
<text text-anchor="start" x="550.5" y="-112" font-family="Helvetica,sans-Serif" font-size="10.00" fill="#000000">title</text>
<polygon fill="none" stroke="#000000" points="598.5,-104 598.5,-125 636.5,-125 636.5,-104 598.5,-104"/>
<text text-anchor="start" x="603.5" y="-112" font-family="Helvetica,sans-Serif" font-size="10.00" fill="#000000">string</text>
<polygon fill="none" stroke="#000000" points="636.5,-104 636.5,-125 674.5,-125 674.5,-104 636.5,-104"/>
<text text-anchor="start" x="641.5" y="-112" font-family="Helvetica,sans-Serif" font-size="10.00" fill="#000000">100%</text>
<polygon fill="none" stroke="#000000" points="674.5,-104 674.5,-125 709.5,-125 709.5,-104 674.5,-104"/>
<text text-anchor="start" x="697.5" y="-112" font-family="Helvetica,sans-Serif" font-size="10.00" fill="#000000">5</text>
<polygon fill="none" stroke="#000000" points="709.5,-104 709.5,-125 753.5,-125 753.5,-104 709.5,-104"/>
<text text-anchor="start" x="726.5" y="-112" font-family="Helvetica,sans-Serif" font-size="10.00" fill="#000000">15.3</text>
<polygon fill="none" stroke="#000000" points="753.5,-104 753.5,-125 788.5,-125 788.5,-104 753.5,-104"/>
<text text-anchor="start" x="770.5" y="-112" font-family="Helvetica,sans-Serif" font-size="10.00" fill="#000000">31</text>
</g>
<!-- Person -->
<g id="node2" class="node">
<title>Person</title>
<polygon fill="#fce94f" stroke="transparent" points="0,-186 0,-207 228,-207 228,-186 0,-186"/>
<polygon fill="none" stroke="#000000" points="0,-186 0,-207 228,-207 228,-186 0,-186"/>
<text text-anchor="start" x="5" y="-195" font-family="Helvetica,sans-Serif" font-weight="bold" font-size="10.00" fill="#000000">Person</text>
<text text-anchor="start" x="44" y="-195" font-family="Helvetica,sans-Serif" font-size="10.00" fill="#000000"> </text>
<text text-anchor="start" x="48" y="-195" font-family="Helvetica,sans-Serif" font-style="italic" font-size="10.00" fill="#000000">(133)</text>
<polygon fill="none" stroke="#000000" points="0,-165 0,-186 38,-186 38,-165 0,-165"/>
<text text-anchor="start" x="5" y="-173" font-family="Helvetica,sans-Serif" font-size="10.00" fill="#000000">born</text>
<polygon fill="none" stroke="#000000" points="38,-165 38,-186 76,-186 76,-165 38,-165"/>
<text text-anchor="start" x="43" y="-173" font-family="Helvetica,sans-Serif" font-size="10.00" fill="#000000">int</text>
<polygon fill="none" stroke="#000000" points="76,-165 76,-186 114,-186 114,-165 76,-165"/>
<text text-anchor="start" x="87" y="-173" font-family="Helvetica,sans-Serif" font-size="10.00" fill="#000000">96%</text>
<polygon fill="none" stroke="#000000" points="114,-165 114,-186 149,-186 149,-165 114,-165"/>
<text text-anchor="start" x="119" y="-173" font-family="Helvetica,sans-Serif" font-size="10.00" fill="#000000">1929</text>
<polygon fill="none" stroke="#000000" points="149,-165 149,-186 193,-186 193,-165 149,-165"/>
<text text-anchor="start" x="154" y="-173" font-family="Helvetica,sans-Serif" font-size="10.00" fill="#000000">1957.7</text>
<polygon fill="none" stroke="#000000" points="193,-165 193,-186 228,-186 228,-165 193,-165"/>
<text text-anchor="start" x="198" y="-173" font-family="Helvetica,sans-Serif" font-size="10.00" fill="#000000">1996</text>
<polygon fill="none" stroke="#000000" points="0,-144 0,-165 38,-165 38,-144 0,-144"/>
<text text-anchor="start" x="5" y="-152" font-family="Helvetica,sans-Serif" font-size="10.00" fill="#000000">name</text>
<polygon fill="none" stroke="#000000" points="38,-144 38,-165 76,-165 76,-144 38,-144"/>
<text text-anchor="start" x="43" y="-152" font-family="Helvetica,sans-Serif" font-size="10.00" fill="#000000">string</text>
<polygon fill="none" stroke="#000000" points="76,-144 76,-165 114,-165 114,-144 76,-144"/>
<text text-anchor="start" x="81" y="-152" font-family="Helvetica,sans-Serif" font-size="10.00" fill="#000000">100%</text>
<polygon fill="none" stroke="#000000" points="114,-144 114,-165 149,-165 149,-144 114,-144"/>
<text text-anchor="start" x="137" y="-152" font-family="Helvetica,sans-Serif" font-size="10.00" fill="#000000">4</text>
<polygon fill="none" stroke="#000000" points="149,-144 149,-165 193,-165 193,-144 149,-144"/>
<text text-anchor="start" x="166" y="-152" font-family="Helvetica,sans-Serif" font-size="10.00" fill="#000000">12.4</text>
<polygon fill="none" stroke="#000000" points="193,-144 193,-165 228,-165 228,-144 193,-144"/>
<text text-anchor="start" x="210" y="-152" font-family="Helvetica,sans-Serif" font-size="10.00" fill="#000000">22</text>
</g>
<!-- Person/ACTED_IN/Movie -->
<g id="node3" class="node">
<title>Person/ACTED_IN/Movie</title>
<polygon fill="#d3d7cf" stroke="transparent" points="310.5,-299 310.5,-320 469.5,-320 469.5,-299 310.5,-299"/>
<polygon fill="none" stroke="#888888" points="310.5,-299 310.5,-320 469.5,-320 469.5,-299 310.5,-299"/>
<text text-anchor="start" x="315.5" y="-308" font-family="Helvetica,sans-Serif" font-size="10.00" fill="#000000">ACTED_IN </text>
<text text-anchor="start" x="367.5" y="-308" font-family="Helvetica,sans-Serif" font-style="italic" font-size="10.00" fill="#000000">(172)</text>
<polygon fill="none" stroke="#888888" points="310.5,-278 310.5,-299 345.5,-299 345.5,-278 310.5,-278"/>
<text text-anchor="start" x="315.5" y="-286" font-family="Helvetica,sans-Serif" font-size="10.00" fill="#000000">roles</text>
<polygon fill="none" stroke="#888888" points="345.5,-278 345.5,-299 371.5,-299 371.5,-278 345.5,-278"/>
<text text-anchor="start" x="350.5" y="-286" font-family="Helvetica,sans-Serif" font-size="10.00" fill="#000000">list</text>
<polygon fill="none" stroke="#888888" points="371.5,-278 371.5,-299 409.5,-299 409.5,-278 371.5,-278"/>
<text text-anchor="start" x="376.5" y="-286" font-family="Helvetica,sans-Serif" font-size="10.00" fill="#000000">100%</text>
<polygon fill="none" stroke="#888888" points="409.5,-278 409.5,-299 426.5,-299 426.5,-278 409.5,-278"/>
<text text-anchor="start" x="414.5" y="-286" font-family="Helvetica,sans-Serif" font-size="10.00" fill="#000000">1</text>
<polygon fill="none" stroke="#888888" points="426.5,-278 426.5,-299 452.5,-299 452.5,-278 426.5,-278"/>
<text text-anchor="start" x="431.5" y="-286" font-family="Helvetica,sans-Serif" font-size="10.00" fill="#000000">1.1</text>
<polygon fill="none" stroke="#888888" points="452.5,-278 452.5,-299 469.5,-299 469.5,-278 452.5,-278"/>
<text text-anchor="start" x="457.5" y="-286" font-family="Helvetica,sans-Serif" font-size="10.00" fill="#000000">6</text>
</g>
<!-- Person&#45;&gt;Person/ACTED_IN/Movie -->
<g id="edge3" class="edge">
<title>Person&#45;&gt;Person/ACTED_IN/Movie</title>
<path fill="none" stroke="#000000" d="M161.6088,-207.6008C194.1234,-228.0316 238.8001,-253.9055 281,-271 288.3278,-273.9684 296.0635,-276.7 303.8928,-279.1951"/>
<polygon fill="#000000" stroke="#000000" points="303.5401,-281.2844 309.8929,-281.0571 304.7849,-277.2731 303.5401,-281.2844"/>
<text text-anchor="middle" x="254.5" y="-267" font-family="Helvetica,sans-Serif" font-size="10.00" fill="#888888">1:1.3</text>
</g>
<!-- Person/DIRECTED/Movie -->
<g id="node4" class="node">
<title>Person/DIRECTED/Movie</title>
<polygon fill="#d3d7cf" stroke="transparent" points="344.5,-235 344.5,-256 434.5,-256 434.5,-235 344.5,-235"/>
<polygon fill="none" stroke="#888888" points="344.5,-235 344.5,-256 434.5,-256 434.5,-235 344.5,-235"/>
<text text-anchor="start" x="349.5" y="-244" font-family="Helvetica,sans-Serif" font-size="10.00" fill="#000000">DIRECTED </text>
<text text-anchor="start" x="402.5" y="-244" font-family="Helvetica,sans-Serif" font-style="italic" font-size="10.00" fill="#000000">(44)</text>
</g>
<!-- Person&#45;&gt;Person/DIRECTED/Movie -->
<g id="edge1" class="edge">
<title>Person&#45;&gt;Person/DIRECTED/Movie</title>
<path fill="none" stroke="#000000" d="M228.394,-207.4215C245.984,-212.0803 263.958,-216.7421 281,-221 299.6184,-225.6518 320.1136,-230.4554 338.23,-234.5935"/>
<polygon fill="#000000" stroke="#000000" points="337.96,-236.6856 344.2765,-235.9701 338.8924,-232.5904 337.96,-236.6856"/>
<text text-anchor="middle" x="254.5" y="-220" font-family="Helvetica,sans-Serif" font-size="10.00" fill="#888888">3:1</text>
</g>
<!-- Person/FOLLOWS/Person -->
<g id="node5" class="node">
<title>Person/FOLLOWS/Person</title>
<polygon fill="#d3d7cf" stroke="transparent" points="349.5,-185 349.5,-206 430.5,-206 430.5,-185 349.5,-185"/>
<polygon fill="none" stroke="#888888" points="349.5,-185 349.5,-206 430.5,-206 430.5,-185 349.5,-185"/>
<text text-anchor="start" x="354.5" y="-194" font-family="Helvetica,sans-Serif" font-size="10.00" fill="#000000">FOLLOWS </text>
<text text-anchor="start" x="404.5" y="-194" font-family="Helvetica,sans-Serif" font-style="italic" font-size="10.00" fill="#000000">(3)</text>
</g>
<!-- Person&#45;&gt;Person/FOLLOWS/Person -->
<g id="edge9" class="edge">
<title>Person&#45;&gt;Person/FOLLOWS/Person</title>
<path fill="none" stroke="#000000" d="M228.0899,-187.1547C231.7687,-187.4498 235.4128,-187.7326 239,-188 273.7133,-190.5877 312.9918,-192.6463 342.7158,-194.027"/>
<polygon fill="#000000" stroke="#000000" points="342.8185,-196.1338 348.9085,-194.3113 343.0112,-191.9383 342.8185,-196.1338"/>
<text text-anchor="middle" x="254.5" y="-192" font-family="Helvetica,sans-Serif" font-size="10.00" fill="#888888">44.3:1</text>
</g>
<!-- Person/PRODUCED/Movie -->
<g id="node6" class="node">
<title>Person/PRODUCED/Movie</title>
<polygon fill="#d3d7cf" stroke="transparent" points="344.5,-135 344.5,-156 434.5,-156 434.5,-135 344.5,-135"/>
<polygon fill="none" stroke="#888888" points="344.5,-135 344.5,-156 434.5,-156 434.5,-135 344.5,-135"/>
<text text-anchor="start" x="349.5" y="-144" font-family="Helvetica,sans-Serif" font-size="10.00" fill="#000000">PRODUCED </text>
<text text-anchor="start" x="408.5" y="-144" font-family="Helvetica,sans-Serif" font-style="italic" font-size="10.00" fill="#000000">(15)</text>
</g>
<!-- Person&#45;&gt;Person/PRODUCED/Movie -->
<g id="edge7" class="edge">
<title>Person&#45;&gt;Person/PRODUCED/Movie</title>
<path fill="none" stroke="#000000" d="M228.0785,-160.2507C231.7605,-159.8174 235.4084,-159.3991 239,-159 271.9732,-155.336 309.1085,-152.1187 338.2411,-149.8014"/>
<polygon fill="#000000" stroke="#000000" points="338.5157,-151.8863 344.3319,-149.3207 338.1852,-147.6993 338.5157,-151.8863"/>
<text text-anchor="middle" x="254.5" y="-162" font-family="Helvetica,sans-Serif" font-size="10.00" fill="#888888">8.9:1</text>
</g>
<!-- Person/REVIEWED/Movie -->
<g id="node7" class="node">
<title>Person/REVIEWED/Movie</title>
<polygon fill="#d3d7cf" stroke="transparent" points="281.5,-92 281.5,-113 498.5,-113 498.5,-92 281.5,-92"/>
<polygon fill="none" stroke="#888888" points="281.5,-92 281.5,-113 498.5,-113 498.5,-92 281.5,-92"/>
<text text-anchor="start" x="286.5" y="-101" font-family="Helvetica,sans-Serif" font-size="10.00" fill="#000000">REVIEWED </text>
<text text-anchor="start" x="341.5" y="-101" font-family="Helvetica,sans-Serif" font-style="italic" font-size="10.00" fill="#000000">(9)</text>
<polygon fill="none" stroke="#888888" points="281.5,-71 281.5,-92 338.5,-92 338.5,-71 281.5,-71"/>
<text text-anchor="start" x="286.5" y="-79" font-family="Helvetica,sans-Serif" font-size="10.00" fill="#000000">rating</text>
<polygon fill="none" stroke="#888888" points="338.5,-71 338.5,-92 376.5,-92 376.5,-71 338.5,-71"/>
<text text-anchor="start" x="343.5" y="-79" font-family="Helvetica,sans-Serif" font-size="10.00" fill="#000000">int</text>
<polygon fill="none" stroke="#888888" points="376.5,-71 376.5,-92 414.5,-92 414.5,-71 376.5,-71"/>
<text text-anchor="start" x="381.5" y="-79" font-family="Helvetica,sans-Serif" font-size="10.00" fill="#000000">100%</text>
<polygon fill="none" stroke="#888888" points="414.5,-71 414.5,-92 437.5,-92 437.5,-71 414.5,-71"/>
<text text-anchor="start" x="419.5" y="-79" font-family="Helvetica,sans-Serif" font-size="10.00" fill="#000000">45</text>
<polygon fill="none" stroke="#888888" points="437.5,-71 437.5,-92 469.5,-92 469.5,-71 437.5,-71"/>
<text text-anchor="start" x="442.5" y="-79" font-family="Helvetica,sans-Serif" font-size="10.00" fill="#000000">75.2</text>
<polygon fill="none" stroke="#888888" points="469.5,-71 469.5,-92 498.5,-92 498.5,-71 469.5,-71"/>
<text text-anchor="start" x="474.5" y="-79" font-family="Helvetica,sans-Serif" font-size="10.00" fill="#000000">100</text>
<polygon fill="none" stroke="#888888" points="281.5,-50 281.5,-71 338.5,-71 338.5,-50 281.5,-50"/>
<text text-anchor="start" x="286.5" y="-58" font-family="Helvetica,sans-Serif" font-size="10.00" fill="#000000">summary</text>
<polygon fill="none" stroke="#888888" points="338.5,-50 338.5,-71 376.5,-71 376.5,-50 338.5,-50"/>
<text text-anchor="start" x="343.5" y="-58" font-family="Helvetica,sans-Serif" font-size="10.00" fill="#000000">string</text>
<polygon fill="none" stroke="#888888" points="376.5,-50 376.5,-71 414.5,-71 414.5,-50 376.5,-50"/>
<text text-anchor="start" x="381.5" y="-58" font-family="Helvetica,sans-Serif" font-size="10.00" fill="#000000">100%</text>
<polygon fill="none" stroke="#888888" points="414.5,-50 414.5,-71 437.5,-71 437.5,-50 414.5,-50"/>
<text text-anchor="start" x="419.5" y="-58" font-family="Helvetica,sans-Serif" font-size="10.00" fill="#000000">12</text>
<polygon fill="none" stroke="#888888" points="437.5,-50 437.5,-71 469.5,-71 469.5,-50 437.5,-50"/>
<text text-anchor="start" x="442.5" y="-58" font-family="Helvetica,sans-Serif" font-size="10.00" fill="#000000">27.7</text>
<polygon fill="none" stroke="#888888" points="469.5,-50 469.5,-71 498.5,-71 498.5,-50 469.5,-50"/>
<text text-anchor="start" x="480.5" y="-58" font-family="Helvetica,sans-Serif" font-size="10.00" fill="#000000">85</text>
</g>
<!-- Person&#45;&gt;Person/REVIEWED/Movie -->
<g id="edge11" class="edge">
<title>Person&#45;&gt;Person/REVIEWED/Movie</title>
<path fill="none" stroke="#000000" d="M206.5039,-144.4379C233.6486,-135.1762 263.4302,-125.0147 290.9378,-115.6292"/>
<polygon fill="#000000" stroke="#000000" points="291.7709,-117.5639 296.7713,-113.6388 290.4146,-113.5889 291.7709,-117.5639"/>
<text text-anchor="middle" x="254.5" y="-134" font-family="Helvetica,sans-Serif" font-size="10.00" fill="#888888">14.8:1</text>
</g>
<!-- Person/WROTE/Movie -->
<g id="node8" class="node">
<title>Person/WROTE/Movie</title>
<polygon fill="#d3d7cf" stroke="transparent" points="353.5,-7 353.5,-28 425.5,-28 425.5,-7 353.5,-7"/>
<polygon fill="none" stroke="#888888" points="353.5,-7 353.5,-28 425.5,-28 425.5,-7 353.5,-7"/>
<text text-anchor="start" x="358.5" y="-16" font-family="Helvetica,sans-Serif" font-size="10.00" fill="#000000">WROTE </text>
<text text-anchor="start" x="398.5" y="-16" font-family="Helvetica,sans-Serif" font-style="italic" font-size="10.00" fill="#000000">(10)</text>
</g>
<!-- Person&#45;&gt;Person/WROTE/Movie -->
<g id="edge5" class="edge">
<title>Person&#45;&gt;Person/WROTE/Movie</title>
<path fill="none" stroke="#000000" d="M144.8979,-144.2151C176.3553,-113.7112 227.922,-68.6071 281,-43 301.7582,-32.9853 326.7159,-26.8763 347.4586,-23.2071"/>
<polygon fill="#000000" stroke="#000000" points="347.9041,-25.2617 353.4699,-22.1905 347.2037,-21.1205 347.9041,-25.2617"/>
<text text-anchor="middle" x="254.5" y="-70" font-family="Helvetica,sans-Serif" font-size="10.00" fill="#888888">13.3:1</text>
</g>
<!-- Person/ACTED_IN/Movie&#45;&gt;Movie -->
<g id="edge4" class="edge">
<title>Person/ACTED_IN/Movie&#45;&gt;Movie</title>
<path fill="none" stroke="#000000" d="M469.2852,-282.2067C479.1641,-279.0292 488.9587,-275.3163 498,-271 540.7649,-250.5839 583.5824,-218.6346 615.3538,-192.1475"/>
<polygon fill="#000000" stroke="#000000" points="616.7144,-193.7473 619.96,-188.2813 614.0142,-190.5303 616.7144,-193.7473"/>
<text text-anchor="middle" x="521.5" y="-266" font-family="Helvetica,sans-Serif" font-size="10.00" fill="#888888">4.5:1</text>
</g>
<!-- Person/DIRECTED/Movie&#45;&gt;Movie -->
<g id="edge2" class="edge">
<title>Person/DIRECTED/Movie&#45;&gt;Movie</title>
<path fill="none" stroke="#000000" d="M434.6433,-237.628C454.341,-233.4569 477.5586,-227.8335 498,-221 523.4098,-212.5055 550.2099,-201.5518 574.7769,-190.6538"/>
<polygon fill="#000000" stroke="#000000" points="575.6883,-192.5468 580.3111,-188.1832 573.9762,-188.7116 575.6883,-192.5468"/>
<text text-anchor="middle" x="521.5" y="-219" font-family="Helvetica,sans-Serif" font-size="10.00" fill="#888888">1.2:1</text>
</g>
<!-- Person/FOLLOWS/Person&#45;&gt;Person -->
<g id="edge10" class="edge">
<title>Person/FOLLOWS/Person&#45;&gt;Person</title>
<path fill="none" stroke="#000000" d="M348.8049,-187.0376C325.8027,-182.4288 296.4409,-177.3056 270,-175 258.5118,-173.9982 246.5297,-173.3574 234.5357,-172.9851"/>
<polygon fill="#000000" stroke="#000000" points="234.3201,-170.8785 228.2651,-172.8144 234.2057,-175.077 234.3201,-170.8785"/>
<text text-anchor="middle" x="254.5" y="-178" font-family="Helvetica,sans-Serif" font-size="10.00" fill="#888888">1:44.3</text>
</g>
<!-- Person/PRODUCED/Movie&#45;&gt;Movie -->
<g id="edge8" class="edge">
<title>Person/PRODUCED/Movie&#45;&gt;Movie</title>
<path fill="none" stroke="#000000" d="M434.6213,-146C463.0255,-146 501.2378,-146 538.4398,-146"/>
<polygon fill="#000000" stroke="#000000" points="538.8841,-148.1001 544.8841,-146 538.8841,-143.9001 538.8841,-148.1001"/>
<text text-anchor="middle" x="521.5" y="-149" font-family="Helvetica,sans-Serif" font-size="10.00" fill="#888888">1:2.5</text>
</g>
<!-- Person/REVIEWED/Movie&#45;&gt;Movie -->
<g id="edge12" class="edge">
<title>Person/REVIEWED/Movie&#45;&gt;Movie</title>
<path fill="none" stroke="#000000" d="M498.1827,-107.1108C511.458,-110.178 525.1169,-113.3339 538.6398,-116.4583"/>
<polygon fill="#000000" stroke="#000000" points="538.5228,-118.5865 544.8416,-117.8912 539.4684,-114.4943 538.5228,-118.5865"/>
<text text-anchor="middle" x="521.5" y="-117" font-family="Helvetica,sans-Serif" font-size="10.00" fill="#888888">1:4.2</text>
</g>
<!-- Person/WROTE/Movie&#45;&gt;Movie -->
<g id="edge6" class="edge">
<title>Person/WROTE/Movie&#45;&gt;Movie</title>
<path fill="none" stroke="#000000" d="M425.5704,-23.3049C447.1186,-27.2042 474.7343,-33.5027 498,-43 534.6087,-57.9441 572.4301,-80.3275 602.9418,-100.4144"/>
<polygon fill="#000000" stroke="#000000" points="602.001,-102.3103 608.1622,-103.8756 604.3219,-98.8098 602.001,-102.3103"/>
<text text-anchor="middle" x="521.5" y="-62" font-family="Helvetica,sans-Serif" font-size="10.00" fill="#888888">1:3.8</text>
</g>
</g>
</svg>
